<svg version="1.2" baseProfile="tiny-ps" xmlns="http://www.w3.org/2000/svg" width="480" height="480" viewBox="0 0 480 480"><title>Docuee Logo</title><desc>Official Docuee brand logo for school management and collaboration. Used for brand identity and verified email display.</desc>
<path fill="#28166f" d="M206.53 39.918c5.116-.898 10.722-1.714 16.6-2.23 5.877-.518 12.026-.736 20.217-.436 8.19.299 18.422 1.115 28.19 2.666 9.77 1.551 19.075 3.837 27.51 6.368 8.436 2.53 16 5.306 23.756 8.762 7.755 3.455 15.7 7.591 22.449 11.619 6.748 4.027 12.299 7.945 17.66 12.109a227.55 227.55 0 0 1 15.156 12.87c4.626 4.3 8.708 8.49 12.79 13.089a214.804 214.804 0 0 1 12.353 15.292c4.19 5.687 8.49 12.055 11.918 17.742 3.429 5.687 5.987 10.694 8.898 17.279 2.912 6.585 6.177 14.748 8.572 21.932 2.394 7.183 3.918 13.387 5.36 20.353 1.442 6.966 2.803 14.694 3.592 21.878.79 7.184 1.007 13.823 1.007 19.891 0 6.068-.218 11.565-.817 17.742-.598 6.177-1.578 13.034-3.129 20.87-1.55 7.837-3.673 16.653-6.857 26.041-3.184 9.388-7.428 19.347-11.837 27.973-4.408 8.626-8.98 15.918-13.66 22.694-4.68 6.775-9.469 13.034-14.367 18.694-4.898 5.66-9.905 10.72-15.7 15.972-5.797 5.252-12.381 10.694-19.51 15.701-7.13 5.007-14.803 9.578-22.395 13.442-7.592 3.864-15.102 7.02-23.238 10.041-8.137 3.02-16.898 5.905-25.715 8.027-8.816 2.123-17.687 3.483-25.632 4.272-7.946.79-14.966 1.007-21.824.926-6.857-.082-13.55-.463-20.98-1.443-7.428-.98-15.59-2.557-23.645-4.598A215.15 215.15 0 0 1 169.605 428c-7.646-2.912-14.993-6.231-20.816-9.088-5.823-2.858-10.122-5.252-15.265-8.436-5.143-3.184-11.13-7.156-16.762-11.483-5.633-4.326-10.912-9.007-16.354-14.367-5.442-5.36-11.047-11.402-15.755-17.007-4.707-5.605-8.517-10.775-12.707-17.252-4.191-6.476-8.762-14.258-12.953-23.238-4.19-8.98-8-19.156-11.047-28.789-3.048-9.633-5.334-18.72-6.667-26.422-1.333-7.7-1.714-14.013-2.014-21.823-.299-7.81-.517-17.115.082-26.476.599-9.36 2.014-18.775 4.517-29.225 2.503-10.449 6.095-21.931 9.279-30.367 3.184-8.435 5.959-13.823 9.932-20.762 3.973-6.939 9.143-15.428 14.204-22.612 5.061-7.184 10.014-13.061 16.599-19.782 6.585-6.721 14.802-14.286 22.476-20.436 7.673-6.15 14.802-10.884 22.939-15.483a236.676 236.676 0 0 1 26.258-12.734c8.98-3.674 17.796-6.558 24.517-8.49 6.721-1.932 11.347-2.912 16.463-3.81z"/><path fill="#d7edfb" d="M119.98 31.51c5.98-3.167 15.266-8.034 24.351-12.035 9.086-4 17.971-7.135 27.29-9.802a254.264 254.264 0 0 1 28.66-6.434c9.587-1.567 19.007-2.5 26.723-3.034 7.716-.534 13.728-.667 23.582 0 9.854.667 23.55 2.134 34.238 3.867 10.69 1.734 18.372 3.734 27.023 6.502 8.652 2.767 18.272 6.3 26.355 9.868 8.084 3.567 14.63 7.168 21.813 11.502 7.181 4.334 14.998 9.402 22.814 15.336 7.816 5.935 15.632 12.736 23.415 20.338 7.783 7.601 15.533 16.002 22.848 25.504 7.315 9.502 14.196 20.104 19.34 28.706 5.144 8.601 8.552 15.202 12.16 23.87 3.607 8.67 7.415 19.404 10.354 29.273 2.94 9.869 5.01 18.87 6.447 29.706 1.436 10.835 2.238 23.504 2.305 35.24.066 11.735-.602 22.537-2.606 35.073-2.004 12.535-5.344 26.805-9.62 39.84-4.276 13.036-9.486 24.838-14.898 35.24-5.411 10.402-11.023 19.404-17.77 28.639-6.748 9.235-14.63 18.703-23.315 27.572-8.685 8.868-18.172 17.136-26.856 24.004-8.685 6.868-16.568 12.336-27.057 18.137-10.489 5.801-23.582 11.935-34.405 16.203-10.823 4.267-19.374 6.668-27.39 8.602a307.71 307.71 0 0 1-21.98 4.467c-6.48 1.067-11.958 1.734-20.877 1.967-8.918.233-21.277.033-32.067-.7-10.789-.734-20.008-2-29.995-4.2-9.988-2.201-20.744-5.335-29.696-8.336-8.952-3-16.1-5.868-23.048-9.068-6.948-3.2-13.695-6.735-19.908-10.469-6.213-3.734-11.891-7.668-17.436-11.569-5.545-3.9-10.956-7.768-17.47-13.335-6.514-5.568-14.13-12.836-21.913-21.571-7.782-8.735-15.732-18.937-21.544-27.372-5.813-8.435-9.487-15.103-13.73-23.671-4.241-8.568-9.051-19.037-12.893-29.606-3.841-10.568-6.714-21.237-8.751-30.839-2.038-9.602-3.24-18.136-4.009-29.105-.768-10.969-1.102-24.371-.3-36.907.802-12.536 2.739-24.204 5.077-34.74 2.338-10.535 5.077-19.937 8.117-28.672a228.757 228.757 0 0 1 10.355-25.004c3.975-8.202 8.585-16.537 14.63-25.705 6.047-9.169 13.529-19.17 21.746-28.406 8.217-9.235 17.169-17.703 25.386-24.704 8.217-7.002 15.7-12.536 20.777-16.036 5.077-3.501 7.75-4.968 13.728-8.135z"/><path fill="#28166f" d="M77.551 224c18.122 6.204 36.245 12.408 45.388 15.483 9.143 3.075 9.306 3.02 9.47 2.966 2.122-6.966 4.244-13.932 5.632-19.048 1.388-5.115 2.04-8.38 2.068-11.483.027-3.102-.572-6.04-1.85-8.952-1.28-2.912-3.239-5.796-5.905-8.327-2.667-2.53-6.041-4.707-9.85-6.176-3.81-1.47-8.055-2.232-11.43-2.504-3.373-.272-5.877-.054-8.435.626-2.557.68-5.17 1.823-7.537 3.51-2.367 1.687-4.49 3.919-6.367 6.966-1.878 3.048-3.51 6.912-5.334 11.538-1.823 4.626-3.836 10.013-5.85 15.401Z"/><path fill="#d7edfb" d="m88.163 217.633 39.02 14.204c1.09-3.32 2.178-6.64 3.076-9.796.897-3.157 1.605-6.15 1.85-8.463.245-2.313.027-3.945-.544-5.524-.572-1.578-1.497-3.102-2.585-4.408-1.089-1.306-2.34-2.394-4.245-3.619-1.905-1.224-4.463-2.585-6.966-3.564a32.954 32.954 0 0 0-6.94-1.878c-1.985-.3-3.51-.3-5.332.109a18.68 18.68 0 0 0-5.85 2.449c-1.906 1.224-3.593 2.857-5.09 5.388-1.496 2.53-2.802 5.959-3.836 8.625-1.034 2.667-1.796 4.572-2.558 6.477z"/><path fill="#28166f" d="M142.857 173.769c-2.177-1.252-4.68-2.94-6.449-4.49-1.769-1.551-2.803-2.966-3.973-5.034-1.17-2.068-2.476-4.79-3.347-7.456-.87-2.667-1.306-5.279-1.415-8.027-.108-2.748.11-5.633.626-8.082.517-2.449 1.334-4.462 2.558-6.558 1.225-2.095 2.857-4.272 4.599-6.176 1.741-1.905 3.592-3.538 5.632-4.844 2.041-1.306 4.273-2.286 6.64-3.102 2.367-.816 4.87-1.47 7.347-1.796 2.476-.326 4.925-.326 6.966-.218 2.04.11 3.673.327 5.578.98 1.905.653 4.082 1.741 6.068 2.857 1.987 1.116 3.782 2.259 5.497 3.973 1.714 1.714 3.347 4 4.734 6.53 1.388 2.531 2.531 5.307 3.157 8.055.626 2.748.735 5.47.653 7.946-.082 2.476-.354 4.707-.79 6.72a25.311 25.311 0 0 1-2.013 5.851c-.98 2.04-2.34 4.326-4.109 6.395-1.768 2.068-3.945 3.918-6.72 5.523-2.776 1.606-6.15 2.966-8.627 3.701-2.476.735-4.054.844-5.66.87a55.574 55.574 0 0 1-5.088-.163c-1.85-.136-3.918-.353-5.877-.87-1.96-.517-3.81-1.334-5.987-2.585z"/><path fill="#d7edfb" d="M137.633 140.844c.925-2.395 2.503-5.007 4.49-7.239a26.757 26.757 0 0 1 6.639-5.36c2.258-1.279 4.38-1.987 6.53-2.34 2.15-.354 4.327-.354 6.477.109 2.15.462 4.272 1.387 6.449 2.966 2.177 1.578 4.408 3.81 5.959 5.469 1.55 1.66 2.422 2.748 3.156 4.163.735 1.415 1.334 3.157 1.633 5.034.3 1.878.3 3.891.245 5.687-.055 1.796-.163 3.374-.463 4.817-.299 1.442-.789 2.748-1.632 4.299-.844 1.551-2.041 3.347-3.347 4.707-1.306 1.361-2.721 2.286-4.164 3.048a25.376 25.376 0 0 1-4.517 1.85c-1.605.49-3.346.871-5.034 1.116-1.687.245-3.32.354-5.224.082a18.776 18.776 0 0 1-6.15-2.041c-2.068-1.116-4.027-2.694-5.632-4.436-1.606-1.741-2.858-3.646-3.837-5.442-.98-1.796-1.687-3.483-2.15-5.088-.462-1.606-.68-3.13-.653-4.98.027-1.85.3-4.027 1.225-6.421z"/><path fill="#28166f" d="M252.816 102.068c.79-.952.68-4.163.572-7.374-1.905-.925-3.81-1.85-5.987-2.476-2.177-.626-4.625-.953-6.938-1.17-2.313-.218-4.49-.327-6.286-.327-1.796 0-3.211.109-4.79.517-1.578.408-3.319 1.116-4.87 1.714-1.551.599-2.912 1.089-4.49 1.987-1.578.898-3.374 2.204-4.789 3.646-1.415 1.442-2.449 3.02-3.673 5.061-1.225 2.041-2.64 4.544-3.483 6.558-.844 2.014-1.116 3.538-1.388 5.225-.272 1.687-.544 3.537-.544 5.06 0 1.525.272 2.722.517 4.436.245 1.715.462 3.946.98 5.796.516 1.85 1.333 3.32 2.34 5.034 1.006 1.714 2.203 3.674 3.537 5.17 1.333 1.497 2.803 2.53 4.571 3.7 1.769 1.171 3.837 2.477 5.85 3.43 2.014.952 3.973 1.55 6.286 1.904 2.313.354 4.98.463 7.211.408a31.661 31.661 0 0 0 6.095-.707c2.068-.436 4.409-1.089 6.558-2.041 2.15-.952 4.11-2.204 5.143-2.993 1.034-.79 1.143-1.116 1.034-2.857-.109-1.742-.435-4.898-.952-6.068-.517-1.17-1.225-.354-2.83.843-1.606 1.198-4.11 2.776-6.395 3.7-2.286.926-4.354 1.198-6.449 1.416-2.095.218-4.217.38-6.177.19-1.959-.19-3.755-.734-5.387-1.36-1.633-.626-3.102-1.334-4.436-2.368-1.333-1.034-2.53-2.394-3.619-4.081-1.088-1.687-2.068-3.7-2.748-5.524a21.855 21.855 0 0 1-1.279-5.306 26.507 26.507 0 0 1-.027-6.068c.245-2.15.789-4.381 1.687-6.395.898-2.013 2.15-3.81 3.428-5.251a20.085 20.085 0 0 1 3.973-3.456c1.388-.925 2.857-1.687 4.082-2.259 1.224-.571 2.204-.952 3.673-1.197 1.47-.245 3.429-.354 5.36-.326 1.933.027 3.838.19 5.58.57 1.74.382 3.319.98 4.952 1.933 1.632.952 3.32 2.258 4.108 1.306zM293.714 98.612c-4.408 8.544-8.816 17.089-11.7 22.803-2.885 5.714-4.245 8.599-5.225 10.83-.98 2.231-1.578 3.81-1.932 5.17-.354 1.36-.462 2.503-.544 3.946-.082 1.442-.136 3.183.163 4.816.3 1.633.953 3.156 1.905 4.843.952 1.688 2.204 3.538 3.592 5.034 1.388 1.497 2.911 2.64 4.571 3.592 1.66.953 3.456 1.715 5.17 2.368 1.715.653 3.347 1.197 4.98 1.523 1.633.327 3.265.436 5.007.49 1.741.055 3.592.055 5.333-.19 1.742-.245 3.374-.735 4.762-1.524 1.388-.79 2.53-1.878 3.918-3.347 1.388-1.47 3.02-3.32 4.436-5.388 1.415-2.068 2.612-4.354 4.326-7.81 1.715-3.455 3.946-8.08 6.232-12.68 2.285-4.598 4.625-9.17 5.687-11.428 1.06-2.259.843-2.204-.49-2.83-1.334-.626-3.783-1.932-4.98-2.476-1.197-.544-1.143-.327-3.483 4.354-2.34 4.68-7.075 13.823-10.34 19.836-3.265 6.014-5.061 8.898-6.83 10.912-1.769 2.013-3.51 3.156-5.197 3.782-1.687.626-3.32.735-4.953.68-1.632-.054-3.265-.272-5.197-1.143-1.932-.87-4.163-2.394-5.714-3.7-1.551-1.306-2.422-2.395-3.075-3.837-.653-1.442-1.088-3.238-1.007-4.98.082-1.741.68-3.428 3.81-10.04 3.13-6.613 8.789-18.15 11.592-23.946 2.802-5.796 2.748-5.85 1.469-6.503-1.279-.653-3.782-1.905-6.286-3.157zM325.088 174.939c7.973-5.578 23.483-16.953 38.994-28.327l18.775 26.45-6.367 3.918-13.551-18.286-11.919 8.98 13.551 17.959-6.53 4.408-13.551-17.47-15.184 10.45 13.714 18.612-7.183 4.898-19.592-26.45c.435.218.87.436 8.843-5.142zM350.15 212.952c9.36-2.394 27.972-6.693 46.585-10.993l6.857 31.02-7.02 2.123-5.552-22.53-14.367 3.101 5.388 22.041-7.837 1.96-5.061-22.531-18.612 5.061 5.224 22.204-8.326 1.143-4.572-22.04-1.47-6.042-.816-1.142c.11-.49.218-.98 9.579-3.375zM226.34 204.354c.055-1.36.163-4.082.436-5.905.272-1.823.707-2.748 1.55-3.32.844-.571 2.096-.789 5.797-.898 3.7-.109 9.85-.109 13.17.136 3.32.245 3.809.735 4.081 1.551.272.817.327 1.96.381 3.755.055 1.796.109 4.245.109 5.551 0 1.307-.054 1.47-.109 1.633l-22.53-.49s-2.94-.653-2.885-2.013zM226.313 210.776c-.19 1.687-.19 4.843-.19 8l25.959-.327-.164-9.796h-24.653c-.38.218-.762.435-.952 2.123zM226.857 223.673c-.735 1.524-.898 4.68-.87 6.34.027 1.66.244 1.824.462 1.987.38.218.762.435 1.252.87a7.685 7.685 0 0 1 1.523 1.851c.436.762.708 1.633.898 3.184.19 1.55.3 3.782.273 5.932-.028 2.15-.19 4.217-.6 6.258-.407 2.041-1.06 4.055-1.74 6.123-.68 2.068-1.388 4.19-2.558 6.34-1.17 2.15-2.803 4.326-3.674 5.55-.87 1.225-.98 1.497-.653 2.504.327 1.007 1.088 2.749 2.884 7.02 1.796 4.273 4.626 11.075 6.858 16.98 2.23 5.905 3.864 10.912 4.734 13.578.871 2.667.98 2.994 1.089 3.32l-.164-37.55c-.87-.11-1.741-.219-2.15-1.144a2.822 2.822 0 0 1 1.334-3.592c1.687-.925 5.007-1.034 6.721-.98 1.714.055 1.823.273 1.823 1.334s-.109 2.966-.626 3.946-1.442 1.034-1.904 7.401c-.463 6.368-.463 19.048-.436 25.252.028 6.204.082 5.932 1.66 1.306 1.578-4.626 4.68-13.605 7.783-22.585a2819.247 2819.247 0 0 0 5.387-13.252c1.034-2.585.925-2.422-.49-4.653-1.415-2.231-4.136-6.857-5.66-9.959-1.523-3.102-1.85-4.68-2.013-8.082-.163-3.401-.163-8.625-.163-13.85 1.36-1.415 2.72-2.83 3.374-5.007.653-2.177.599-5.115.544-8.054l-21.55.326c-1.307-.108-2.613-.217-3.348 1.306z"/><path fill="#28166f" d="M82.122 286.014c1.633-.626 5.551-1.932 9.17-3.293 3.62-1.36 6.94-2.775 11.592-5.17 4.654-2.395 10.64-5.769 14.912-8.327 4.272-2.557 6.83-4.299 9.605-6.312 2.776-2.014 5.77-4.3 9.062-7.32 3.292-3.02 6.884-6.776 8.843-9.034 1.96-2.259 2.286-3.02 3.483-3.211 1.197-.19 3.265.19 5.415.626 2.15.435 4.381.925 7.075 1.986s5.85 2.694 8.816 4.3a140.007 140.007 0 0 1 9.769 5.768c4.027 2.585 9.306 6.177 13.714 9.497 4.408 3.32 7.946 6.367 12.027 10.34 4.082 3.973 8.708 8.87 12.082 13.088 3.374 4.218 5.497 7.755 7.782 11.62 2.286 3.863 4.735 8.054 7.266 13.142 2.53 5.089 5.143 11.075 7.755 17.062 1.741-4.409 3.483-8.817 6.775-15.211 3.293-6.395 8.136-14.776 12.517-21.198 4.381-6.422 8.3-10.884 13.579-16 5.279-5.115 11.918-10.884 17.932-15.428 6.013-4.545 11.4-7.864 16.898-10.694 5.496-2.83 11.102-5.17 15.238-6.667 4.136-1.496 6.802-2.15 8.408-2.313 1.605-.163 2.15.164 2.802 1.034.654.871 1.415 2.286 3.43 4.626 2.013 2.34 5.278 5.606 8.924 8.844 3.647 3.238 7.674 6.449 11.946 9.333 4.272 2.884 8.789 5.442 13.714 7.864 4.925 2.422 10.259 4.707 14.612 6.612 4.354 1.905 7.728 3.429 9.17 4.218 1.443.789.953.843.463.898-7.51.816-15.02 1.633-21.796 2.64-6.776 1.006-12.816 2.203-19.075 3.537-6.258 1.333-12.734 2.802-18.884 4.408-6.15 1.605-11.973 3.347-17.47 5.388-5.496 2.04-10.666 4.38-18.34 8.326-7.673 3.946-17.85 9.497-24.163 13.225-6.313 3.728-8.762 5.632-13.306 9.605-4.544 3.973-11.184 10.014-15.782 14.177-4.6 4.163-7.157 6.449-8.381 7.483-1.225 1.034-1.116.816-1.007.599-1.089-2.014-2.177-4.028-3.592-6.014-1.415-1.986-3.156-3.946-6.014-6.585-2.857-2.64-6.83-5.96-14.15-10.966-7.32-5.007-17.986-11.7-28.299-17.143-10.313-5.442-20.272-9.632-31.864-13.496-11.592-3.864-24.816-7.402-35.074-9.796-10.259-2.395-17.551-3.647-22.94-4.327-5.387-.68-8.87-.789-12.353-.898-.87-.109-1.741-.218-2.503-.245-.762-.027-1.415.027.217-.598z"/><path fill="#28166f" d="M75.32 309.279c-.218-1.742-.218-5.551-.245-7.483-.027-1.932-.082-1.986-.136-2.04 4.3.271 8.598.543 12.571.87 3.973.326 7.62.707 11.538 1.252 3.918.544 8.108 1.251 13.279 2.34 5.17 1.088 11.32 2.558 17.523 4.353 6.205 1.796 12.463 3.919 17.47 5.633s8.762 3.02 12.571 4.653c3.81 1.633 7.674 3.592 12.163 5.96 4.49 2.367 9.606 5.142 14.776 8.244 5.17 3.102 10.394 6.53 15.646 10.068 5.252 3.538 10.53 7.184 15.293 10.776 4.762 3.592 9.007 7.129 12.027 9.905 3.02 2.775 4.816 4.789 6.068 6.53 1.252 1.742 1.96 3.211 2.667 4.68 1.687-1.034 3.374-2.068 7.646-5.714 4.272-3.646 11.13-9.905 18.503-15.837 7.375-5.932 15.266-11.537 21.606-15.7 6.34-4.164 11.129-6.885 16.68-9.715a248.735 248.735 0 0 1 18.857-8.625 274.788 274.788 0 0 1 22.966-8.19c8.3-2.559 17.225-4.899 25.034-6.586 7.81-1.687 14.504-2.721 20.272-3.347 5.769-.626 10.612-.843 13.034-.98 2.422-.135 2.422-.19 2.422-.244l.163 12.408h-9.442c-2.912 0-5.47 0-8.49.245-3.02.245-6.503.734-9.496 1.279-2.994.544-5.497 1.142-9.415 2.095-3.919.952-9.252 2.258-14.204 3.564-4.953 1.307-9.524 2.613-16.463 5.035-6.939 2.421-16.245 5.959-23.891 9.387-7.646 3.429-13.633 6.749-20.082 10.94-6.449 4.19-13.36 9.25-19.564 14.258-6.205 5.006-11.701 9.959-15.293 13.442-3.592 3.483-5.279 5.496-6.694 7.537-1.415 2.041-2.558 4.109-3.21 5.551-.654 1.442-.817 2.259-.98 3.075l-16.327-.327c-.49-1.415-.98-2.83-1.768-4.408-.79-1.578-1.878-3.32-4.626-6.503-2.749-3.184-7.157-7.81-12.164-12.354-5.006-4.544-10.612-9.007-16.789-13.442-6.177-4.436-12.925-8.844-21.115-12.898-8.191-4.055-17.823-7.755-28.11-11.401-10.285-3.647-21.224-7.238-30.285-9.85-9.061-2.613-16.245-4.246-22.014-5.307-5.768-1.061-10.122-1.55-13.034-1.796-2.911-.245-4.38-.245-5.333-.081-.952.163-1.388.49-1.605-1.252z"/></svg>